<svg xmlns="http://www.w3.org/2000/svg" width="180mm" height="85.108696mm" viewBox="0 0 920 435">
<title>Fixed-control pitch-moment response for Astra and Opus</title>
<desc>Raw aerodynamic pitch-moment coefficients on two meshes near conditional candidates. Not exact equilibria or dynamic stability evidence.</desc>
<rect width="920" height="435" fill="white"/>
<text x="255.0" y="28.8" text-anchor="middle" font-family="Arial, Helvetica, sans-serif" font-size="21">(a) Astra V1</text>
<text x="88" y="50.6" text-anchor="start" font-family="Arial, Helvetica, sans-serif" font-size="17">Cm</text>
<line x1="88" y1="280.75" x2="422" y2="280.75" stroke="#dddddd" stroke-width="0.6"/>
<text x="76" y="287.15" text-anchor="end" font-family="Arial, Helvetica, sans-serif" font-size="18">-0.030</text>
<line x1="88" y1="216.25000000000003" x2="422" y2="216.25000000000003" stroke="#dddddd" stroke-width="0.6"/>
<text x="76" y="222.65000000000003" text-anchor="end" font-family="Arial, Helvetica, sans-serif" font-size="18">-0.028</text>
<line x1="88" y1="151.74999999999997" x2="422" y2="151.74999999999997" stroke="#dddddd" stroke-width="0.6"/>
<text x="76" y="158.14999999999998" text-anchor="end" font-family="Arial, Helvetica, sans-serif" font-size="18">-0.026</text>
<line x1="88" y1="87.25000000000003" x2="422" y2="87.25000000000003" stroke="#dddddd" stroke-width="0.6"/>
<text x="76" y="93.65000000000003" text-anchor="end" font-family="Arial, Helvetica, sans-serif" font-size="18">-0.024</text>
<line x1="103.18181818181813" y1="313" x2="103.18181818181813" y2="318" stroke="#222222" stroke-width="1"/>
<text x="103.18181818181813" y="339.4" text-anchor="middle" font-family="Arial, Helvetica, sans-serif" font-size="18">3.5</text>
<line x1="179.090909090909" y1="313" x2="179.090909090909" y2="318" stroke="#222222" stroke-width="1"/>
<text x="179.090909090909" y="339.4" text-anchor="middle" font-family="Arial, Helvetica, sans-serif" font-size="18">3.75</text>
<line x1="254.99999999999991" y1="313" x2="254.99999999999991" y2="318" stroke="#222222" stroke-width="1"/>
<text x="254.99999999999991" y="339.4" text-anchor="middle" font-family="Arial, Helvetica, sans-serif" font-size="18">4</text>
<line x1="330.9090909090909" y1="313" x2="330.9090909090909" y2="318" stroke="#222222" stroke-width="1"/>
<text x="330.9090909090909" y="339.4" text-anchor="middle" font-family="Arial, Helvetica, sans-serif" font-size="18">4.25</text>
<line x1="406.8181818181817" y1="313" x2="406.8181818181817" y2="318" stroke="#222222" stroke-width="1"/>
<text x="406.8181818181817" y="339.4" text-anchor="middle" font-family="Arial, Helvetica, sans-serif" font-size="18">4.5</text>
<line x1="88" y1="55" x2="88" y2="313" stroke="#222222" stroke-width="1"/>
<line x1="88" y1="313" x2="422" y2="313" stroke="#222222" stroke-width="1"/>
<text x="255.0" y="366.0" text-anchor="middle" font-family="Arial, Helvetica, sans-serif" font-size="20">Angle of attack (deg)</text>
<line x1="103.18181818181813" y1="285.5875" x2="179.090909090909" y2="235.27750000000003" stroke="#666666" stroke-width="1.4"/>
<line x1="179.090909090909" y1="235.27750000000003" x2="254.99999999999991" y2="186.57999999999998" stroke="#666666" stroke-width="1.4"/>
<line x1="254.99999999999991" y1="186.57999999999998" x2="330.9090909090909" y2="138.85000000000005" stroke="#666666" stroke-width="1.4"/>
<line x1="330.9090909090909" y1="138.85000000000005" x2="406.8181818181817" y2="92.73250000000002" stroke="#666666" stroke-width="1.4"/>
<circle cx="103.18181818181813" cy="285.5875" r="5" fill="white" stroke="#666666" stroke-width="1.5"/>
<circle cx="179.090909090909" cy="235.27750000000003" r="5" fill="white" stroke="#666666" stroke-width="1.5"/>
<circle cx="254.99999999999991" cy="186.57999999999998" r="5" fill="white" stroke="#666666" stroke-width="1.5"/>
<circle cx="330.9090909090909" cy="138.85000000000005" r="5" fill="white" stroke="#666666" stroke-width="1.5"/>
<circle cx="406.8181818181817" cy="92.73250000000002" r="5" fill="white" stroke="#666666" stroke-width="1.5"/>
<line x1="103.18181818181813" y1="275.59" x2="179.090909090909" y2="224.63500000000002" stroke="#0072b2" stroke-width="1.4"/>
<line x1="179.090909090909" y1="224.63500000000002" x2="254.99999999999991" y2="174.97000000000003" stroke="#0072b2" stroke-width="1.4"/>
<line x1="254.99999999999991" y1="174.97000000000003" x2="330.9090909090909" y2="126.595" stroke="#0072b2" stroke-width="1.4"/>
<line x1="330.9090909090909" y1="126.595" x2="406.8181818181817" y2="79.51000000000002" stroke="#0072b2" stroke-width="1.4"/>
<rect x="98.18181818181813" y="270.59" width="10" height="10" fill="#0072b2"/>
<rect x="174.090909090909" y="219.63500000000002" width="10" height="10" fill="#0072b2"/>
<rect x="249.99999999999991" y="169.97000000000003" width="10" height="10" fill="#0072b2"/>
<rect x="325.9090909090909" y="121.595" width="10" height="10" fill="#0072b2"/>
<rect x="401.8181818181817" y="74.51000000000002" width="10" height="10" fill="#0072b2"/>
<text x="735.0" y="28.8" text-anchor="middle" font-family="Arial, Helvetica, sans-serif" font-size="21">(b) Opus V1</text>
<text x="568" y="50.6" text-anchor="start" font-family="Arial, Helvetica, sans-serif" font-size="17">Cm</text>
<line x1="568" y1="280.75" x2="902" y2="280.75" stroke="#dddddd" stroke-width="0.6"/>
<text x="556" y="287.15" text-anchor="end" font-family="Arial, Helvetica, sans-serif" font-size="18">0.014</text>
<line x1="568" y1="216.25" x2="902" y2="216.25" stroke="#dddddd" stroke-width="0.6"/>
<text x="556" y="222.65" text-anchor="end" font-family="Arial, Helvetica, sans-serif" font-size="18">0.016</text>
<line x1="568" y1="151.75000000000006" x2="902" y2="151.75000000000006" stroke="#dddddd" stroke-width="0.6"/>
<text x="556" y="158.15000000000006" text-anchor="end" font-family="Arial, Helvetica, sans-serif" font-size="18">0.018</text>
<line x1="568" y1="87.25000000000003" x2="902" y2="87.25000000000003" stroke="#dddddd" stroke-width="0.6"/>
<text x="556" y="93.65000000000003" text-anchor="end" font-family="Arial, Helvetica, sans-serif" font-size="18">0.020</text>
<line x1="583.1818181818181" y1="313" x2="583.1818181818181" y2="318" stroke="#222222" stroke-width="1"/>
<text x="583.1818181818181" y="339.4" text-anchor="middle" font-family="Arial, Helvetica, sans-serif" font-size="18">3.5</text>
<line x1="659.090909090909" y1="313" x2="659.090909090909" y2="318" stroke="#222222" stroke-width="1"/>
<text x="659.090909090909" y="339.4" text-anchor="middle" font-family="Arial, Helvetica, sans-serif" font-size="18">3.75</text>
<line x1="734.9999999999999" y1="313" x2="734.9999999999999" y2="318" stroke="#222222" stroke-width="1"/>
<text x="734.9999999999999" y="339.4" text-anchor="middle" font-family="Arial, Helvetica, sans-serif" font-size="18">4</text>
<line x1="810.9090909090909" y1="313" x2="810.9090909090909" y2="318" stroke="#222222" stroke-width="1"/>
<text x="810.9090909090909" y="339.4" text-anchor="middle" font-family="Arial, Helvetica, sans-serif" font-size="18">4.25</text>
<line x1="886.8181818181818" y1="313" x2="886.8181818181818" y2="318" stroke="#222222" stroke-width="1"/>
<text x="886.8181818181818" y="339.4" text-anchor="middle" font-family="Arial, Helvetica, sans-serif" font-size="18">4.5</text>
<line x1="568" y1="55" x2="568" y2="313" stroke="#222222" stroke-width="1"/>
<line x1="568" y1="313" x2="902" y2="313" stroke="#222222" stroke-width="1"/>
<text x="735.0" y="366.0" text-anchor="middle" font-family="Arial, Helvetica, sans-serif" font-size="20">Angle of attack (deg)</text>
<line x1="583.1818181818181" y1="120.4675" x2="659.090909090909" y2="145.62249999999997" stroke="#666666" stroke-width="1.4"/>
<line x1="659.090909090909" y1="145.62249999999997" x2="734.9999999999999" y2="171.74500000000003" stroke="#666666" stroke-width="1.4"/>
<line x1="734.9999999999999" y1="171.74500000000003" x2="810.9090909090909" y2="198.51250000000005" stroke="#666666" stroke-width="1.4"/>
<line x1="810.9090909090909" y1="198.51250000000005" x2="886.8181818181818" y2="226.24750000000003" stroke="#666666" stroke-width="1.4"/>
<circle cx="583.1818181818181" cy="120.4675" r="5" fill="white" stroke="#666666" stroke-width="1.5"/>
<circle cx="659.090909090909" cy="145.62249999999997" r="5" fill="white" stroke="#666666" stroke-width="1.5"/>
<circle cx="734.9999999999999" cy="171.74500000000003" r="5" fill="white" stroke="#666666" stroke-width="1.5"/>
<circle cx="810.9090909090909" cy="198.51250000000005" r="5" fill="white" stroke="#666666" stroke-width="1.5"/>
<circle cx="886.8181818181818" cy="226.24750000000003" r="5" fill="white" stroke="#666666" stroke-width="1.5"/>
<line x1="583.1818181818181" y1="129.49750000000006" x2="659.090909090909" y2="155.29750000000004" stroke="#0072b2" stroke-width="1.4"/>
<line x1="659.090909090909" y1="155.29750000000004" x2="734.9999999999999" y2="181.74250000000006" stroke="#0072b2" stroke-width="1.4"/>
<line x1="734.9999999999999" y1="181.74250000000006" x2="810.9090909090909" y2="209.47750000000005" stroke="#0072b2" stroke-width="1.4"/>
<line x1="810.9090909090909" y1="209.47750000000005" x2="886.8181818181818" y2="237.53500000000003" stroke="#0072b2" stroke-width="1.4"/>
<rect x="578.1818181818181" y="124.49750000000006" width="10" height="10" fill="#0072b2"/>
<rect x="654.090909090909" y="150.29750000000004" width="10" height="10" fill="#0072b2"/>
<rect x="729.9999999999999" y="176.74250000000006" width="10" height="10" fill="#0072b2"/>
<rect x="805.9090909090909" y="204.47750000000005" width="10" height="10" fill="#0072b2"/>
<rect x="881.8181818181818" y="232.53500000000003" width="10" height="10" fill="#0072b2"/>
<line x1="272" y1="405" x2="308" y2="405" stroke="#666666" stroke-width="1.4"/>
<circle cx="290" cy="405" r="5" fill="white" stroke="#666666" stroke-width="1.5"/>
<text x="321" y="412.0" text-anchor="start" font-family="Arial, Helvetica, sans-serif" font-size="20">8 × 40</text>
<line x1="515" y1="405" x2="551" y2="405" stroke="#0072b2" stroke-width="1.4"/>
<rect x="528" y="400" width="10" height="10" fill="#0072b2"/>
<text x="564" y="412.0" text-anchor="start" font-family="Arial, Helvetica, sans-serif" font-size="20">12 × 80</text>
</svg>